<svg width="24.000000" height="24.000000" viewBox="0 0 24 24" fill="none" xmlns="http://www.w3.org/2000/svg" xmlns:xlink="http://www.w3.org/1999/xlink">
	<desc>
			Created with Pixso.
	</desc>
	<defs>
		<clipPath id="clip61_10564">
			<rect id="help-circle" width="20.000000" height="20.000000" transform="translate(2.000000 2.000000)" fill="white" fill-opacity="0"/>
		</clipPath>
	</defs>
	<rect id="Help icon" width="24.000000" height="24.000000" fill="#FFFFFF" fill-opacity="0"/>
	<rect id="help-circle" width="20.000000" height="20.000000" transform="translate(2.000000 2.000000)" fill="#FFFFFF" fill-opacity="0"/>
	<g clip-path="url(#clip61_10564)">
		<path id="Icon" d="M12 20.33C7.39 20.33 3.66 16.6 3.66 11.99C3.66 7.39 7.39 3.66 12 3.66C16.6 3.66 20.33 7.39 20.33 11.99C20.33 16.6 16.6 20.33 12 20.33ZM9.57 9.49C9.77 8.94 10.15 8.47 10.66 8.17C11.17 7.87 11.77 7.76 12.35 7.86C12.93 7.96 13.46 8.26 13.84 8.71C14.22 9.17 14.43 9.74 14.43 10.33C14.43 11.4 13.39 12.05 12.66 12.38C12.24 12.56 11.93 12.96 11.93 13.41L11.93 13.66M12 16.16L12 16.16" stroke="#888888" stroke-opacity="1.000000" stroke-width="1.100000" stroke-linejoin="round"/>
	</g>
</svg>
